<svg width="152" height="34" viewBox="0 0 152 34" fill="none" xmlns="http://www.w3.org/2000/svg">
<path fill-rule="evenodd" clip-rule="evenodd" d="M15.6 0H18.8V9.36096C19.6224 8.37878 20.6546 7.8877 21.8969 7.8877C24.4177 7.8877 25.6961 9.35222 25.7319 12.2812V19.7256H22.6274V12.3672C22.6274 11.7012 22.4842 11.2106 22.1977 10.8955C21.9112 10.5732 21.435 10.4121 20.769 10.4121C19.8651 10.4121 19.2088 10.7587 18.8 11.4518V30.7405L15.6 33.9576V0ZM10.8819 18.4902C12.0062 17.5235 12.6293 16.1986 12.751 14.5156H9.52836C9.45666 15.4681 9.17383 16.1735 8.67969 16.6318C8.19271 17.083 7.4515 17.3086 6.45606 17.3086C5.35319 17.3086 4.54395 16.9183 4.02832 16.1377C3.51986 15.3571 3.26563 14.1218 3.26563 12.4316V11.25C3.27995 9.63151 3.55209 8.43913 4.08203 7.67286C4.61914 6.89942 5.42481 6.5127 6.49903 6.5127C7.48731 6.5127 8.22136 6.74187 8.70117 7.2002C9.18816 7.65137 9.47106 8.38184 9.54976 9.39161H12.7725C12.6006 7.64421 11.9633 6.28711 10.8604 5.32032C9.75746 4.35352 8.30371 3.87012 6.49903 3.87012C5.19564 3.87012 4.04981 4.17806 3.06153 4.79395C2.08041 5.40267 1.32487 6.27995 0.794918 7.42579C0.264978 8.57162 0 9.89649 0 11.4004V12.3564C0 14.7126 0.572918 16.5674 1.71875 17.9209C2.87175 19.2673 4.45085 19.9404 6.45606 19.9404C8.28939 19.9404 9.76466 19.457 10.8819 18.4902ZM30.3553 18.3721C31.4295 19.4177 32.8189 19.9404 34.5233 19.9404C35.4901 19.9404 36.3709 19.7578 37.1659 19.3926C37.9608 19.0202 38.591 18.5046 39.0565 17.8457L37.5311 16.1377C36.8579 17.0042 35.9234 17.4375 34.7274 17.4375C33.9539 17.4375 33.313 17.2083 32.8045 16.75C32.3032 16.2917 32.0025 15.683 31.9022 14.9238H39.3036V13.6563C39.3036 11.8158 38.8452 10.3942 37.9286 9.39161C37.0191 8.389 35.7694 7.8877 34.1795 7.8877C33.1196 7.8877 32.1743 8.13835 31.3436 8.63965C30.52 9.13379 29.8827 9.84278 29.4315 10.7666C28.9803 11.6833 28.7547 12.7253 28.7547 13.8926V14.1934C28.7547 15.9336 29.2883 17.3265 30.3553 18.3721ZM32.6649 11.0244C33.0516 10.609 33.5529 10.4014 34.1688 10.4014C34.8276 10.4014 35.3361 10.5911 35.6942 10.9707C36.0523 11.3431 36.2385 11.873 36.2528 12.5605V12.8076H31.9344C32.0418 12.0342 32.2853 11.4398 32.6649 11.0244ZM43.0246 10.3799V19.7256H46.1399V10.3799H48.4495V8.10254H46.1399V7.16797C46.1399 6.07227 46.7235 5.52442 47.8909 5.52442C48.2633 5.52442 48.5784 5.55664 48.8362 5.6211L48.8684 3.21484C48.2454 3.07161 47.719 3 47.2893 3C45.9429 3 44.8938 3.36165 44.1418 4.08497C43.397 4.80111 43.0246 5.81088 43.0246 7.11426V8.10254H41.2952V10.3799H43.0246ZM61.1661 19.7256V14.2149H63.9913C65.8461 14.2149 67.2963 13.7744 68.3418 12.8936C69.3946 12.0055 69.9209 10.7952 69.9209 9.2627C69.9209 8.25293 69.681 7.35417 69.2012 6.56641C68.7214 5.77149 68.0339 5.15918 67.1387 4.7295C66.2507 4.29981 65.2194 4.08497 64.045 4.08497H57.9434V19.7256H61.1661ZM64.045 11.6045H61.1661V6.69532H64.1202C64.9151 6.70964 65.5381 6.95313 65.9893 7.42579C66.4405 7.89844 66.6661 8.51791 66.6661 9.28418C66.6661 10.029 66.4405 10.6019 65.9893 11.0029C65.5453 11.404 64.8972 11.6045 64.045 11.6045ZM73.0727 10.7236C72.6287 11.626 72.4067 12.6536 72.4067 13.8067V13.9463C72.4067 15.794 72.9044 17.2549 73.8998 18.3291C74.9024 19.4033 76.2416 19.9404 77.9174 19.9404C79.5932 19.9404 80.9288 19.4033 81.9243 18.3291C82.9197 17.2477 83.4174 15.8154 83.4174 14.0322L83.3959 13.2373C83.2814 11.5902 82.7263 10.2868 81.7309 9.32715C80.7426 8.36752 79.4643 7.8877 77.8959 7.8877C76.7931 7.8877 75.8227 8.13477 74.9848 8.62891C74.1541 9.12305 73.5167 9.82129 73.0727 10.7236ZM76.1342 16.5674C75.7189 15.9802 75.5112 15.1351 75.5112 14.0322C75.5112 12.7933 75.7189 11.8802 76.1342 11.293C76.5496 10.6986 77.1368 10.4014 77.8959 10.4014C78.6622 10.4014 79.2566 10.6986 79.6791 11.293C80.1017 11.8874 80.3129 12.7253 80.3129 13.8067C80.3129 15.0742 80.1017 15.9981 79.6791 16.5781C79.2566 17.1511 78.6694 17.4375 77.9174 17.4375C77.144 17.4375 76.5496 17.1475 76.1342 16.5674ZM91.8436 10.9277C92.1659 10.9277 92.5383 10.9564 92.9608 11.0137L93.0038 8.02735C92.703 7.93425 92.3807 7.8877 92.037 7.8877C90.9341 7.8877 90.0711 8.42123 89.4481 9.48829L89.3621 8.10254H86.4295V19.7256H89.534V12.1201C89.8993 11.3252 90.6691 10.9277 91.8436 10.9277ZM99.8182 8.10254V5.24512H96.7141V8.10254H95.0168V10.3799H96.7141V16.6426C96.7571 18.8412 97.8671 19.9404 100.044 19.9404C100.689 19.9404 101.315 19.8473 101.924 19.6611V17.3086C101.659 17.3587 101.355 17.3838 101.011 17.3838C100.545 17.3838 100.23 17.2907 100.065 17.1045C99.9012 16.9183 99.8182 16.6104 99.8182 16.1807V10.3799H101.806V8.10254H99.8182ZM105.484 10.3799V19.7256H108.599V10.3799H110.909V8.10254H108.599V7.16797C108.599 6.07227 109.183 5.52442 110.35 5.52442C110.722 5.52442 111.038 5.55664 111.295 5.6211L111.328 3.21484C110.705 3.07161 110.178 3 109.748 3C108.402 3 107.353 3.36165 106.601 4.08497C105.856 4.80111 105.484 5.81088 105.484 7.11426V8.10254H103.754V10.3799H105.484ZM113.803 10.7236C113.359 11.626 113.137 12.6536 113.137 13.8067V13.9463C113.137 15.794 113.634 17.2549 114.63 18.3291C115.632 19.4033 116.972 19.9404 118.647 19.9404C120.323 19.9404 121.659 19.4033 122.654 18.3291C123.65 17.2477 124.147 15.8154 124.147 14.0322L124.126 13.2373C124.011 11.5902 123.456 10.2868 122.461 9.32715C121.473 8.36752 120.194 7.8877 118.626 7.8877C117.523 7.8877 116.553 8.13477 115.715 8.62891C114.884 9.12305 114.247 9.82129 113.803 10.7236ZM116.864 16.5674C116.449 15.9802 116.241 15.1351 116.241 14.0322C116.241 12.7933 116.449 11.8802 116.864 11.293C117.279 10.6986 117.867 10.4014 118.626 10.4014C119.392 10.4014 119.987 10.6986 120.409 11.293C120.832 11.8874 121.043 12.7253 121.043 13.8067C121.043 15.0742 120.832 15.9981 120.409 16.5781C119.987 17.1511 119.399 17.4375 118.647 17.4375C117.874 17.4375 117.279 17.1475 116.864 16.5674ZM127.321 19.7256H130.436V3.22559H127.321V19.7256ZM134.264 19.7256H137.38V8.10254H134.264V19.7256ZM134.544 3.94532C134.236 4.2461 134.082 4.62924 134.082 5.09473C134.082 5.56739 134.239 5.95411 134.554 6.25489C134.877 6.55567 135.299 6.70606 135.822 6.70606C136.345 6.70606 136.764 6.55567 137.079 6.25489C137.401 5.95411 137.562 5.56739 137.562 5.09473C137.562 4.62924 137.405 4.2461 137.089 3.94532C136.774 3.64453 136.352 3.49414 135.822 3.49414C135.285 3.49414 134.859 3.64453 134.544 3.94532ZM141.23 10.7236C140.786 11.626 140.564 12.6536 140.564 13.8067V13.9463C140.564 15.794 141.061 17.2549 142.057 18.3291C143.059 19.4033 144.398 19.9404 146.074 19.9404C147.75 19.9404 149.086 19.4033 150.081 18.3291C151.077 17.2477 151.574 15.8154 151.574 14.0322L151.553 13.2373C151.438 11.5902 150.883 10.2868 149.888 9.32715C148.899 8.36752 147.621 7.8877 146.053 7.8877C144.95 7.8877 143.98 8.13477 143.142 8.62891C142.311 9.12305 141.674 9.82129 141.23 10.7236ZM144.291 16.5674C143.876 15.9802 143.668 15.1351 143.668 14.0322C143.668 12.7933 143.876 11.8802 144.291 11.293C144.706 10.6986 145.294 10.4014 146.053 10.4014C146.819 10.4014 147.413 10.6986 147.836 11.293C148.258 11.8874 148.47 12.7253 148.47 13.8067C148.47 15.0742 148.258 15.9981 147.836 16.5781C147.413 17.1511 146.826 17.4375 146.074 17.4375C145.301 17.4375 144.706 17.1475 144.291 16.5674Z" fill="#FFA500"/>
</svg>
